<?xml version="1.0" standalone="no"?>
<!DOCTYPE svg PUBLIC "-//W3C//DTD SVG 20010904//EN"
 "http://www.w3.org/TR/2001/REC-SVG-20010904/DTD/svg10.dtd">
<svg version="1.0" xmlns="http://www.w3.org/2000/svg"
 width="1234.000000pt" height="1234.000000pt" viewBox="0 0 1234.000000 1234.000000"
 preserveAspectRatio="xMidYMid meet">
<metadata>
Created by potrace 1.11, written by Peter Selinger 2001-2013
</metadata>
<g transform="translate(0.000000,1234.000000) scale(0.100000,-0.100000)"
fill="#000000" stroke="none">
<path d="M9590 9291 c0 -5 -8 -8 -17 -7 -35 5 -68 -19 -208 -152 -146 -138
-183 -172 -189 -172 -3 0 -25 -18 -48 -40 -24 -22 -46 -40 -49 -40 -3 0 -17
-9 -30 -21 -13 -11 -34 -29 -47 -40 -12 -10 -26 -19 -31 -19 -5 0 -11 -3 -13
-8 -8 -19 -89 -73 -99 -66 -7 4 -9 3 -5 -4 6 -10 -72 -72 -92 -72 -6 0 -12 -7
-16 -15 -3 -8 -12 -15 -21 -15 -8 0 -15 -3 -15 -8 0 -4 -17 -16 -37 -27 -21
-11 -47 -28 -57 -37 -11 -10 -24 -18 -29 -18 -6 0 -24 -10 -41 -23 -54 -40
-108 -68 -122 -63 -7 3 -11 0 -8 -7 4 -11 -50 -41 -68 -38 -5 0 -8 -4 -8 -10
0 -6 -7 -8 -17 -5 -10 4 -14 4 -10 0 7 -7 -115 -77 -158 -90 -11 -4 -23 -11
-26 -16 -3 -5 -16 -10 -27 -11 -12 -1 -22 -4 -22 -8 0 -11 -51 -29 -62 -23 -7
4 -8 2 -4 -4 5 -8 0 -12 -13 -12 -12 0 -21 -4 -21 -10 0 -5 -9 -10 -20 -10
-11 0 -20 -5 -20 -12 0 -6 -3 -9 -6 -6 -3 4 -30 -5 -60 -18 -31 -13 -60 -21
-66 -18 -7 4 -8 2 -4 -4 4 -7 -7 -13 -29 -18 -19 -3 -35 -9 -35 -13 0 -4 -7
-8 -15 -9 -8 -1 -22 -3 -30 -4 -8 -1 -15 -6 -15 -11 0 -6 -3 -7 -7 -4 -3 4
-17 0 -30 -8 -13 -9 -23 -13 -23 -11 0 3 -16 -2 -35 -10 -19 -8 -35 -11 -35
-7 0 5 -4 3 -8 -2 -12 -18 -80 -35 -86 -21 -2 6 -5 4 -5 -4 -1 -11 -32 -24
-103 -43 -57 -15 -116 -30 -133 -33 -16 -3 -34 -10 -39 -15 -15 -13 -28 -11
-20 4 6 8 3 8 -9 -2 -9 -7 -24 -11 -32 -7 -9 3 -13 2 -10 -4 3 -6 -2 -10 -12
-11 -10 0 -27 -3 -38 -6 -11 -2 -30 -5 -42 -6 -13 0 -23 -5 -23 -9 0 -5 -6 -8
-12 -7 -7 2 -33 -1 -58 -6 -25 -4 -54 -9 -65 -11 -11 -1 -20 -3 -20 -4 0 -2
-30 -7 -78 -13 -21 -3 -41 -8 -44 -11 -3 -3 -13 0 -21 7 -13 9 -14 9 -8 0 5
-9 -1 -13 -21 -14 -46 -2 -88 -7 -88 -9 0 -1 -10 -4 -22 -5 -13 -1 -23 3 -23
9 0 6 -4 5 -9 -3 -5 -7 -14 -10 -20 -7 -6 4 -11 3 -11 -1 0 -5 -28 -9 -62 -11
-35 -1 -74 -3 -88 -5 -14 -2 -31 2 -39 7 -11 8 -13 8 -8 0 5 -8 -7 -13 -34
-16 -22 -2 -43 0 -46 5 -2 4 -10 4 -16 -1 -7 -5 -51 -8 -99 -8 -49 1 -88 -2
-88 -7 0 -4 -9 -3 -20 3 -15 8 -20 8 -20 -1 0 -7 -5 -8 -12 -3 -16 11 -39 11
-55 1 -7 -5 -13 -4 -13 0 0 5 -21 7 -47 6 -27 -2 -67 -3 -90 -3 -24 0 -56 0
-73 0 -16 0 -38 0 -47 0 -10 0 -27 0 -38 0 -27 -1 -35 -1 -65 3 -14 2 -32 0
-41 -4 -8 -4 -21 -4 -29 1 -7 4 -23 5 -35 0 -12 -5 -28 -4 -35 0 -8 5 -21 5
-30 0 -9 -5 -22 -5 -29 -1 -7 5 -30 5 -51 1 -21 -4 -44 -4 -51 1 -7 4 -20 4
-29 -1 -9 -5 -22 -5 -29 0 -8 4 -27 4 -42 0 -16 -5 -29 -6 -29 -2 0 4 -16 7
-35 7 -19 0 -35 -4 -35 -8 0 -4 -8 -4 -18 1 -9 4 -35 7 -57 5 -62 -4 -118 -4
-140 0 -11 3 -28 0 -37 -5 -10 -5 -18 -5 -18 0 0 4 -19 7 -42 5 -54 -5 -111
-3 -116 2 -3 2 -13 0 -23 -5 -10 -6 -20 -6 -23 -1 -5 8 -58 6 -83 -4 -7 -2
-13 -1 -13 3 0 4 -16 7 -35 7 -19 0 -35 -4 -35 -8 0 -4 -8 -4 -17 1 -10 4 -36
7 -58 5 -62 -4 -118 -4 -140 0 -11 3 -28 0 -37 -5 -10 -5 -18 -5 -18 0 0 4
-19 7 -43 5 -23 -2 -58 -3 -77 -2 -19 1 -41 1 -47 0 -16 -1 -32 -1 -109 0 -34
1 -67 -1 -72 -5 -6 -3 -13 -2 -17 4 -4 6 -12 7 -24 1 -9 -5 -23 -6 -30 -2 -7
5 -25 6 -39 4 -52 -7 -92 -8 -92 -2 0 8 -32 5 -48 -5 -6 -4 -12 -4 -12 1 0 4
-26 7 -58 5 -72 -4 -125 -2 -131 3 -2 3 -10 0 -18 -6 -7 -6 -13 -8 -13 -3 0
10 -133 10 -149 0 -6 -4 -11 -3 -11 1 0 8 -59 8 -162 0 -21 -1 -38 0 -38 4 0
8 -32 5 -48 -5 -6 -4 -12 -4 -12 1 0 4 -26 7 -58 5 -72 -4 -125 -2 -131 3 -2
3 -10 0 -18 -6 -7 -6 -13 -8 -13 -3 0 10 -133 10 -149 0 -6 -4 -11 -3 -11 1 0
8 -59 8 -162 0 -21 -1 -38 0 -38 4 0 8 -32 5 -48 -5 -6 -4 -12 -4 -12 1 0 4
-26 7 -58 5 -72 -4 -125 -2 -131 3 -2 3 -10 0 -18 -6 -7 -6 -13 -8 -13 -3 0
10 -133 10 -149 0 -6 -4 -11 -3 -11 3 0 5 -10 7 -23 5 -12 -3 -28 -5 -34 -5
-29 2 -70 2 -105 -1 -21 -2 -38 -1 -38 2 0 8 -64 5 -78 -4 -7 -4 -12 -3 -12 1
0 5 -19 8 -43 6 -54 -5 -110 -3 -116 2 -2 3 -10 0 -18 -6 -7 -6 -13 -8 -13 -3
0 10 -148 10 -157 0 -3 -3 -14 -1 -24 5 -13 6 -19 6 -19 -1 0 -5 -9 -10 -19
-10 -10 0 -21 -7 -25 -15 -3 -8 -11 -15 -17 -15 -13 0 -49 -38 -49 -52 0 -5
-5 -6 -10 -3 -6 4 -10 3 -9 -2 1 -4 0 -10 -1 -13 -5 -12 -4 -2040 1 -2040 3 0
12 -18 19 -40 7 -22 17 -40 22 -40 4 0 7 -3 6 -7 -1 -5 4 -18 11 -31 7 -13 10
-30 7 -38 -3 -8 0 -13 7 -11 7 1 11 -4 9 -10 -1 -7 3 -13 9 -13 6 0 9 -6 6
-14 -3 -8 -1 -16 4 -18 5 -2 11 -13 12 -25 0 -12 4 -20 8 -17 10 6 22 -33 14
-46 -4 -6 -1 -9 6 -8 7 2 13 -1 14 -7 0 -5 9 -24 18 -42 20 -38 21 -47 5 -37
-7 5 -8 3 -4 -5 5 -7 10 -10 13 -7 9 9 54 -95 46 -107 -3 -6 -1 -7 5 -3 11 6
16 -6 13 -26 0 -5 4 -8 10 -8 5 0 8 -4 4 -9 -3 -5 -1 -12 5 -16 13 -8 42 -76
35 -83 -2 -3 2 -10 11 -16 8 -6 16 -18 18 -26 1 -8 8 -25 14 -37 7 -13 10 -23
7 -23 -4 0 1 -7 10 -16 9 -9 14 -22 11 -29 -3 -8 2 -16 11 -19 9 -4 13 -9 9
-13 -3 -3 1 -15 11 -25 9 -10 13 -18 9 -18 -4 0 -1 -10 6 -22 7 -13 11 -26 10
-30 -1 -5 2 -8 8 -8 5 0 10 -5 10 -11 0 -6 11 -34 25 -61 14 -27 23 -53 20
-58 -3 -4 2 -11 11 -14 8 -3 12 -10 9 -16 -3 -5 -1 -10 4 -10 6 0 10 -3 9 -7
-2 -8 38 -99 73 -164 10 -20 19 -44 19 -53 0 -9 5 -16 10 -16 6 0 9 -3 8 -7
-1 -5 13 -36 30 -71 18 -34 30 -67 27 -72 -4 -6 -1 -10 5 -10 6 0 8 -4 5 -10
-3 -5 -2 -10 4 -10 10 0 27 -38 23 -52 -1 -5 2 -8 7 -8 4 0 16 -21 26 -48 10
-26 22 -52 27 -59 5 -7 6 -18 2 -25 -4 -7 -4 -10 1 -6 8 8 55 -84 55 -107 0
-7 5 -15 11 -17 5 -2 11 -11 12 -20 2 -9 9 -23 16 -32 7 -8 14 -26 15 -40 0
-13 5 -22 10 -18 5 3 6 -3 2 -14 -4 -10 -4 -15 0 -11 7 7 46 -68 47 -90 0 -7
4 -13 8 -13 7 0 22 -39 20 -52 -1 -5 4 -8 10 -8 5 0 8 -4 5 -9 -3 -5 1 -14 9
-21 8 -7 15 -19 15 -26 0 -8 4 -22 10 -32 37 -66 80 -168 76 -179 -3 -7 0 -12
7 -10 7 1 12 -5 12 -13 0 -36 130 -131 156 -114 5 3 9 1 9 -4 0 -5 11 -9 25
-9 16 0 22 4 18 11 -5 8 -3 8 8 0 20 -15 61 -16 52 -1 -5 9 -3 9 8 1 20 -15
61 -16 52 -1 -5 9 -3 9 8 1 20 -15 61 -16 52 -1 -5 9 -3 9 8 1 20 -15 61 -16
52 -1 -5 9 -3 9 8 1 20 -15 61 -16 52 -1 -5 9 -3 9 8 1 20 -15 61 -16 52 -1
-5 9 -3 9 8 1 19 -14 61 -16 53 -2 -5 7 -2 8 7 2 22 -14 130 -14 122 -1 -5 9
-3 9 8 1 20 -16 82 -16 72 -1 -5 9 -3 9 8 1 20 -16 82 -16 72 -1 -5 9 -3 9 8
1 19 -15 82 -16 73 -2 -5 7 -2 8 7 2 24 -14 51 -16 43 -2 -6 10 -4 10 8 0 17
-14 39 -13 50 3 5 6 8 6 8 -1 0 -6 11 -11 25 -11 14 0 25 5 25 11 0 8 2 8 8 0
4 -6 16 -11 27 -11 11 0 23 5 27 11 6 8 8 8 8 0 0 -6 11 -11 25 -11 14 0 25 5
25 11 0 7 3 8 8 1 10 -15 52 -16 52 -2 0 9 2 9 8 0 8 -13 29 -12 51 1 9 6 12
5 7 -2 -8 -14 34 -12 53 2 11 8 13 8 8 -1 -9 -15 32 -14 52 1 11 8 13 8 8 0
-9 -15 95 -14 105 0 5 8 8 7 8 -1 0 -14 39 -14 59 1 11 8 13 8 8 -1 -9 -15 32
-14 52 1 11 8 13 8 8 -1 -9 -15 32 -14 52 1 11 8 13 8 8 -1 -9 -15 32 -14 52
1 11 8 13 8 8 0 -9 -15 65 -14 75 0 5 8 8 7 8 0 0 -6 11 -11 25 -11 14 0 25 5
25 11 0 8 2 8 8 0 4 -6 16 -11 27 -11 11 0 23 5 27 11 6 8 8 8 8 0 0 -6 11
-11 25 -11 14 0 25 5 25 11 0 8 2 8 8 0 4 -6 16 -11 27 -11 11 0 23 5 27 11 6
8 8 8 8 0 0 -13 108 -13 129 0 9 6 12 5 7 -2 -8 -14 34 -12 53 2 11 8 13 8 8
-1 -9 -15 32 -14 52 1 11 8 13 8 8 -1 -9 -15 32 -14 52 1 11 8 13 8 8 0 -4 -7
7 -11 33 -11 22 0 40 5 40 11 0 8 2 8 8 0 4 -6 16 -11 27 -11 11 0 23 5 27 11
6 8 8 8 8 0 0 -6 11 -11 25 -11 14 0 25 5 25 11 0 8 2 8 8 0 9 -14 45 -14 54
0 6 8 8 8 8 0 0 -6 11 -11 25 -11 14 0 25 5 25 11 0 8 3 8 8 0 9 -13 123 -14
115 -1 -4 6 -1 7 8 1 22 -13 43 -14 51 -1 5 8 8 8 8 1 0 -6 11 -11 25 -11 14
0 25 5 25 11 0 7 3 8 8 1 10 -15 52 -16 52 -2 0 8 2 9 8 1 4 -6 16 -11 27 -11
11 0 23 5 27 11 6 8 8 8 8 0 0 -6 11 -11 25 -11 14 0 25 5 25 11 0 7 3 7 8 1
11 -16 33 -17 50 -3 11 9 13 9 9 1 -9 -15 32 -14 52 1 11 8 13 8 8 -1 -9 -15
32 -14 52 1 11 8 13 8 8 0 -9 -15 95 -14 105 0 5 8 8 7 8 -1 0 -7 16 -12 40
-11 27 0 38 4 33 12 -5 8 -3 8 8 0 20 -16 82 -16 72 -1 -5 9 -3 9 8 1 20 -16
82 -16 72 -1 -5 9 -3 9 8 1 19 -15 82 -16 73 -2 -5 7 -2 8 7 2 24 -14 51 -16
43 -2 -6 10 -4 10 7 2 20 -15 61 -16 52 -1 -5 9 -3 9 8 1 20 -15 61 -16 52 -1
-5 9 -3 9 8 1 20 -15 61 -16 52 -1 -5 9 -3 9 8 1 20 -15 61 -16 52 -1 -5 9 -3
9 8 1 20 -15 61 -16 52 -1 -5 9 -3 9 8 1 20 -15 61 -16 52 -1 -5 9 -3 9 8 1
20 -15 61 -16 52 -1 -5 9 -3 9 8 1 20 -15 61 -16 52 -1 -5 9 -3 9 8 1 19 -14
61 -16 53 -2 -5 7 -2 8 7 2 22 -14 130 -14 122 -1 -5 9 -3 9 8 1 20 -16 82
-16 72 -1 -5 9 -3 9 8 1 20 -16 82 -16 72 -1 -5 9 -3 9 8 1 19 -15 82 -16 73
-2 -5 7 -2 8 7 2 23 -14 51 -16 43 -2 -5 7 -3 8 7 2 22 -13 43 -14 51 -1 5 8
8 8 8 1 0 -6 11 -11 25 -11 14 0 25 5 25 11 0 8 2 8 8 0 9 -14 45 -14 54 0 6
8 8 8 8 0 0 -6 11 -11 25 -11 14 0 25 5 25 11 0 7 3 8 8 1 10 -15 52 -16 52
-2 0 8 3 8 8 2 11 -16 33 -17 50 -3 11 9 13 9 9 1 -9 -15 32 -14 52 1 11 8 13
8 8 -1 -9 -15 32 -14 52 1 11 8 13 8 8 0 -9 -15 95 -14 105 0 5 8 8 7 8 -1 0
-14 39 -14 59 1 11 8 13 8 8 -1 -9 -15 32 -14 52 1 11 8 13 8 8 -1 -9 -15 32
-14 52 1 11 8 13 8 8 -1 -9 -15 32 -14 52 1 11 8 13 8 8 0 -9 -15 65 -14 75 0
5 8 8 7 8 0 0 -6 11 -11 25 -11 14 0 25 5 25 11 0 8 2 8 8 0 4 -6 16 -11 27
-11 11 0 23 5 27 11 6 8 8 8 8 0 0 -6 11 -11 25 -11 14 0 25 5 25 11 0 8 2 8
8 0 4 -6 16 -11 27 -11 11 0 23 5 27 11 6 8 8 8 8 0 0 -13 108 -13 129 0 9 6
12 5 7 -2 -8 -14 34 -12 53 2 11 8 13 8 8 -1 -9 -15 32 -14 52 1 11 8 13 8 8
-1 -9 -15 32 -14 52 1 11 8 13 8 8 0 -4 -7 7 -11 33 -11 22 0 40 5 40 11 0 8
2 8 8 0 4 -6 16 -11 27 -11 11 0 23 5 27 11 6 8 8 8 8 0 0 -6 11 -11 25 -11
14 0 25 5 25 11 0 8 2 8 8 0 4 -6 16 -11 27 -11 11 0 23 5 27 11 6 8 8 8 8 0
0 -6 11 -11 25 -11 14 0 25 5 25 11 0 8 3 8 8 0 9 -13 123 -14 115 -1 -4 6 -1
7 8 1 22 -13 43 -14 51 -1 5 8 8 8 8 1 0 -6 11 -11 25 -11 14 0 25 5 25 11 0
8 2 8 8 0 9 -14 45 -14 54 0 6 8 8 8 8 0 0 -6 11 -11 25 -11 14 0 25 5 25 11
0 7 3 8 8 1 10 -15 52 -16 52 -2 0 8 3 8 8 2 11 -16 33 -17 50 -3 11 9 13 9 9
1 -9 -15 32 -14 52 1 11 8 13 8 8 -1 -9 -15 32 -14 52 1 11 8 13 8 8 0 -9 -15
95 -14 105 0 5 8 8 7 8 -1 0 -7 16 -12 40 -11 27 0 38 4 33 12 -5 8 -3 8 8 0
20 -16 82 -16 72 -1 -5 9 -3 9 8 1 20 -16 82 -16 72 -1 -5 9 -3 9 8 1 19 -15
82 -16 73 -2 -5 7 -2 8 7 2 24 -14 51 -16 43 -2 -6 10 -4 10 7 2 20 -15 61
-16 52 -1 -5 9 -3 9 8 1 20 -15 61 -16 52 -1 -5 9 -3 9 8 1 20 -15 61 -16 52
-1 -5 9 -3 9 8 1 20 -15 61 -16 52 -1 -5 9 -3 9 8 1 20 -15 61 -16 52 -1 -5 9
-3 9 8 1 20 -15 61 -16 52 -1 -5 9 -3 9 8 1 20 -15 61 -16 52 -1 -5 9 -3 9 8
1 20 -15 61 -16 52 -1 -5 9 -3 9 8 1 19 -14 61 -16 53 -2 -5 7 -2 8 7 2 22
-14 130 -14 122 -1 -5 9 -3 9 8 1 20 -16 82 -16 72 -1 -5 9 -3 9 8 1 20 -16
82 -16 72 -1 -5 9 -3 9 8 1 19 -15 82 -16 73 -2 -5 7 -2 8 7 2 23 -14 51 -16
43 -2 -5 7 -3 8 7 2 22 -13 79 -14 79 -1 0 9 2 9 8 1 4 -6 16 -11 27 -11 11 0
23 5 27 11 5 8 8 7 8 -1 0 -9 11 -11 33 -7 17 3 40 6 50 7 9 1 17 6 17 11 0 5
3 7 6 3 3 -3 16 3 27 14 12 11 27 17 34 15 7 -3 10 1 7 8 -3 8 5 21 18 30 12
9 19 16 15 16 -4 0 -2 10 5 22 9 18 12 252 13 1033 0 916 -1 1011 -16 1025 -9
8 -15 23 -13 32 1 11 -3 15 -14 11 -10 -4 -13 -2 -8 5 4 7 1 15 -8 18 -9 3
-14 10 -11 14 3 5 1 11 -5 15 -6 4 -7 12 -4 18 4 7 4 9 -1 5 -9 -9 -40 30 -31
39 3 4 -3 13 -14 20 -11 8 -18 19 -15 24 4 5 -1 9 -9 9 -9 0 -15 3 -14 8 2 4
-19 39 -45 79 -26 40 -47 77 -47 82 0 6 -4 11 -10 11 -5 0 -10 9 -10 21 0 11
-4 17 -10 14 -5 -3 -10 1 -10 9 0 9 -4 16 -10 16 -5 0 -10 7 -10 15 0 8 -4 15
-10 15 -5 0 -10 7 -10 15 0 8 -5 15 -11 15 -5 0 -7 5 -4 10 3 6 -1 13 -9 16
-9 3 -14 10 -11 14 3 5 1 11 -5 15 -6 4 -7 11 -4 17 4 7 2 8 -4 4 -11 -7 -17
6 -13 27 1 5 -2 6 -7 3 -5 -3 -15 7 -23 22 -7 15 -20 35 -28 45 -8 9 -11 17
-7 17 4 0 -5 12 -19 26 -14 14 -23 30 -20 35 4 5 1 9 -4 9 -6 0 -11 7 -11 16
0 8 -4 12 -10 9 -5 -3 -10 -2 -10 4 0 16 -72 131 -82 131 -5 0 -8 6 -6 12 3 7
-3 19 -13 28 -10 8 -19 22 -21 30 -2 8 -11 23 -20 34 -17 19 -16 21 40 73 143
136 212 204 212 211 0 5 6 14 13 20 6 7 13 17 13 22 1 6 2 15 3 21 0 5 7 7 14
3 9 -6 9 -5 0 8 -7 8 -10 18 -6 22 10 10 11 46 1 46 -5 0 -6 5 -3 10 4 6 1 17
-5 25 -7 8 -10 15 -6 15 4 0 -1 11 -10 25 -8 13 -12 30 -8 36 4 8 3 9 -4 5
-11 -7 -16 7 -15 41 1 7 -3 10 -8 7 -5 -3 -9 2 -9 10 0 9 -4 16 -10 16 -5 0
-10 9 -10 20 0 11 -5 20 -11 20 -8 0 -7 6 2 17 9 10 9 14 2 10 -7 -5 -17 1
-23 14 -10 17 -9 20 2 14 7 -5 2 4 -12 20 -14 16 -18 24 -10 20 10 -5 8 -1 -4
13 -11 12 -16 22 -12 22 4 0 0 7 -8 16 -9 8 -19 27 -23 42 -3 15 -9 29 -14 32
-4 3 -9 14 -11 25 -1 11 -7 23 -11 26 -5 4 -10 18 -10 32 -1 14 -4 24 -7 22
-3 -2 -11 3 -18 11 -10 11 -10 14 0 14 9 0 10 3 2 8 -16 10 -44 68 -37 76 4 3
1 6 -6 6 -7 0 -9 5 -6 10 3 6 1 10 -5 10 -7 0 -9 8 -5 21 5 15 4 19 -4 15 -10
-6 -15 6 -12 27 0 4 -3 7 -7 7 -9 0 -37 64 -33 76 2 4 -1 10 -6 13 -14 9 -43
72 -38 81 3 4 -2 11 -11 14 -8 3 -12 10 -9 16 3 5 1 10 -6 10 -7 0 -9 3 -6 7
4 3 0 17 -8 30 -9 13 -13 29 -9 35 4 7 3 8 -4 4 -7 -4 -13 -2 -13 3 -1 6 -2
15 -3 21 0 5 -7 15 -13 22 -7 6 -13 23 -13 36 0 13 -4 20 -10 17 -5 -3 -10 0
-10 8 0 7 -9 33 -21 56 -17 36 -18 45 -7 53 10 8 9 9 -3 5 -18 -6 -39 24 -42
61 0 12 -6 22 -12 22 -7 0 -12 6 -13 13 -2 25 -27 87 -35 87 -5 0 -5 5 -2 10
3 6 1 10 -5 10 -6 0 -8 5 -5 10 3 6 1 10 -4 10 -6 0 -11 7 -11 15 0 8 -4 15
-8 15 -7 0 -12 19 -15 62 -1 9 -4 15 -8 13 -10 -7 -32 43 -26 59 4 11 1 13
-10 9 -12 -5 -15 -2 -10 9 3 10 -1 19 -11 23 -13 5 -14 8 -3 14 10 6 9 10 -4
15 -11 4 -15 13 -12 26 3 11 2 18 -2 16 -8 -5 -55 95 -50 105 2 3 -4 13 -14
23 -9 10 -15 22 -12 27 4 5 1 9 -5 9 -7 0 -9 7 -6 16 4 10 2 13 -6 8 -8 -5 -9
-2 -5 10 4 10 3 15 -3 11 -6 -3 -10 3 -10 14 0 10 -5 21 -10 23 -6 2 -12 13
-13 26 0 12 -5 22 -9 22 -4 0 -8 7 -8 15 0 8 -5 15 -11 15 -5 0 -8 4 -5 9 3 4
-1 17 -9 27 -8 10 -15 29 -15 42 0 15 -4 21 -12 16 -7 -5 -9 -2 -5 9 3 9 -1
18 -10 21 -8 4 -13 13 -9 21 3 8 0 15 -6 15 -6 0 -9 3 -5 6 3 4 -1 13 -9 22
-9 8 -13 23 -11 33 3 10 0 17 -6 16 -6 -1 -11 7 -11 18 0 11 -6 24 -13 28 -8
5 -11 12 -8 18 4 5 1 9 -4 9 -6 0 -11 5 -11 10 0 6 -8 29 -19 50 -13 27 -15
41 -7 44 6 2 1 5 -11 5 -13 1 -22 4 -22 9 1 4 1 14 0 22 -1 13 -2 13 -11 0 -8
-13 -10 -13 -10 2 0 14 -40 35 -75 39 -5 1 -18 5 -27 10 -11 6 -18 6 -18 0z
m-45 -528 c3 -10 5 -19 3 -19 -2 -1 4 -10 13 -20 9 -11 20 -30 24 -43 4 -14
20 -50 36 -80 33 -62 36 -81 14 -81 -8 0 -15 -4 -15 -9 0 -8 -47 -26 -62 -23
-3 1 -12 -5 -18 -13 -7 -8 -23 -15 -36 -15 -13 0 -24 -4 -24 -9 0 -8 -66 -26
-82 -23 -5 1 -8 -2 -8 -7 0 -5 -24 -15 -52 -22 -29 -7 -53 -11 -53 -10 0 1
-13 -3 -30 -9 -30 -12 -44 -15 -103 -24 -64 -11 -85 -15 -90 -20 -3 -3 -11 -1
-19 5 -7 7 -13 7 -13 2 0 -6 -14 -10 -31 -11 -37 -1 -42 -6 68 73 137 100 349
269 390 312 12 13 26 23 30 23 5 0 14 9 21 20 15 25 28 26 37 3z m305 -655
c22 -46 40 -89 40 -95 0 -7 5 -13 10 -13 6 0 10 -6 10 -13 0 -7 9 -31 19 -53
29 -61 105 -223 188 -403 73 -157 75 -165 57 -178 -94 -67 -256 -225 -331
-323 -88 -114 -165 -250 -198 -350 -10 -30 -22 -60 -26 -66 -5 -6 -6 -13 -4
-16 3 -3 0 -18 -6 -34 -11 -27 -14 -49 -18 -117 0 -16 -5 -26 -10 -23 -5 4 -6
-9 -1 -29 5 -21 4 -35 -2 -35 -5 0 -6 -5 -3 -10 4 -6 8 -36 11 -68 2 -31 6
-67 9 -79 3 -13 7 -31 9 -40 2 -10 12 -40 21 -66 9 -27 15 -50 13 -51 -2 -1
-16 -8 -33 -16 -16 -8 -43 -23 -58 -33 -97 -66 -541 -273 -732 -342 -27 -10
-54 -21 -60 -25 -5 -3 -19 -6 -30 -6 -11 1 -22 -2 -25 -5 -10 -11 -92 -39
-100 -34 -4 3 -10 0 -12 -5 -2 -6 -14 -12 -28 -14 -14 -2 -36 -8 -50 -13 -14
-6 -41 -14 -60 -19 -50 -12 -50 -11 -52 -14 -4 -2 -37 -10 -63 -15 -11 -2 -21
-4 -22 -5 -2 -2 -6 -3 -10 -5 -5 -1 -16 -5 -26 -10 -10 -4 -21 -5 -24 -2 -3 4
-14 2 -24 -3 -16 -9 -78 -22 -106 -23 -7 0 -13 -4 -13 -8 0 -4 -17 -7 -38 -6
-20 1 -44 -3 -52 -8 -8 -5 -31 -10 -51 -11 -19 0 -41 -4 -47 -8 -7 -4 -16 -4
-22 -1 -5 3 -10 1 -10 -4 0 -6 -15 -11 -32 -10 -18 0 -46 -2 -63 -6 -16 -3
-51 -7 -77 -8 -26 -2 -50 -6 -54 -10 -4 -4 -14 -1 -22 6 -13 9 -14 9 -8 0 5
-9 0 -13 -16 -14 -13 -1 -49 -2 -81 -4 -48 -2 -59 0 -68 16 -5 10 -7 19 -4 19
4 0 -1 7 -9 16 -9 8 -14 20 -11 25 4 5 2 9 -3 9 -8 0 -13 9 -26 50 -3 9 -48
103 -72 151 -13 25 -21 49 -17 53 3 3 1 6 -5 6 -10 0 -38 67 -34 83 1 4 -2 7
-6 7 -11 0 -32 45 -32 68 0 13 9 18 32 20 17 2 38 8 47 15 12 10 13 9 6 -3 -7
-12 -6 -13 6 -3 8 6 28 14 44 17 17 2 31 5 33 6 1 2 6 3 11 4 5 0 12 4 16 8 4
4 13 4 21 1 8 -3 14 -1 14 4 0 5 6 10 13 11 33 2 131 37 154 54 7 6 17 7 23 3
5 -3 10 -1 10 4 0 6 7 11 15 11 8 0 15 5 15 11 0 5 4 8 9 4 5 -3 15 0 23 7 7
7 31 22 52 33 87 44 190 170 213 258 8 30 8 136 0 169 -7 36 -58 128 -69 128
-5 0 -6 5 -3 10 3 6 3 10 -2 10 -4 0 -24 15 -44 33 -62 54 -79 67 -89 67 -6 0
-10 5 -10 11 0 5 -5 7 -10 4 -6 -3 -12 0 -15 7 -3 8 -14 14 -25 15 -11 1 -27
9 -36 17 -14 15 -28 20 -46 17 -5 0 -8 3 -8 9 0 6 -3 9 -7 9 -19 -3 -34 2 -29
10 3 4 -6 7 -19 5 -14 -1 -25 2 -25 7 0 5 -3 8 -7 7 -13 -3 -97 23 -110 34 -7
6 -13 7 -13 4 0 -4 -10 -1 -22 6 -13 7 -31 11 -40 10 -9 -2 -31 4 -49 13 -17
9 -28 12 -25 6 5 -8 -1 -8 -20 -1 -28 11 -87 23 -116 24 -10 0 -18 4 -18 9 0
4 -4 5 -10 2 -5 -3 -15 -3 -22 1 -7 5 -28 9 -48 10 -19 2 -53 5 -75 8 -112 15
-141 18 -158 18 -11 -1 -15 4 -10 11 4 7 0 6 -10 -2 -14 -11 -17 -11 -17 0 0
12 -2 12 -9 0 -5 -8 -11 -9 -15 -3 -3 5 -19 8 -34 6 -28 -3 -31 1 -81 109 -28
62 -50 115 -49 118 2 3 -5 14 -15 24 -10 9 -16 23 -13 30 3 8 -2 16 -10 19 -9
3 -13 10 -10 15 3 5 -1 14 -10 21 -8 7 -13 19 -10 27 3 7 2 13 -3 13 -5 0 -11
9 -14 19 -3 14 0 20 12 19 26 0 134 12 161 18 14 2 39 6 55 8 57 7 120 17 165
28 25 5 59 12 77 14 18 2 63 11 100 20 37 9 79 18 93 20 14 3 50 12 80 20 30
9 62 18 70 19 8 2 69 20 135 40 145 43 136 41 155 48 8 3 44 15 80 27 36 11
73 25 82 30 10 6 27 10 37 10 11 0 22 4 25 9 3 4 34 18 68 31 56 20 110 42
173 70 99 45 223 102 235 109 39 24 160 81 172 81 8 0 25 -8 38 -17 14 -10 26
-17 27 -16 2 2 8 1 15 -2 53 -17 126 -35 145 -35 13 0 23 -4 23 -8 0 -14 381
-3 420 11 8 4 29 8 45 10 42 6 161 36 215 54 25 8 52 16 60 18 25 5 212 81
265 108 28 14 51 25 53 26 1 1 20 -36 42 -81z m-7667 -715 c-3 -7 -9 -11 -13
-8 -5 3 -13 -3 -19 -12 -6 -10 -11 -15 -11 -10 0 4 -10 1 -23 -8 -13 -8 -27
-12 -32 -8 -4 5 -5 3 -2 -3 8 -14 -20 -27 -35 -17 -7 3 -8 1 -4 -5 7 -11 3
-14 -26 -16 -7 -1 -19 -7 -27 -14 -7 -7 -20 -11 -27 -8 -8 3 -14 1 -14 -4 0
-5 -12 -13 -27 -16 -16 -4 -32 -9 -38 -12 -9 -6 -33 -11 -67 -14 -9 -1 -15 -6
-12 -10 2 -4 -4 -7 -13 -7 -18 0 -58 -8 -58 -12 0 -1 -9 -3 -20 -5 -11 -1 -33
-5 -49 -9 -51 -11 -70 -9 -61 5 3 6 2 10 -4 10 -5 0 -13 10 -17 22 -3 12 -22
54 -40 94 -19 39 -34 73 -34 75 0 2 152 4 339 4 267 0 337 -2 334 -12z m3032
2 c6 -5 48 -93 94 -195 46 -102 88 -189 92 -195 20 -21 2 -33 -66 -41 -22 -3
-55 -10 -73 -16 -18 -5 -40 -7 -48 -4 -9 3 -12 1 -9 -4 6 -10 -26 -15 -73 -12
-12 0 -20 -3 -17 -8 3 -4 -18 -14 -47 -20 -28 -7 -78 -23 -110 -36 -32 -12
-62 -24 -66 -25 -4 -1 -18 -6 -32 -11 -14 -5 -26 -9 -28 -8 -1 0 -10 -6 -18
-15 -9 -8 -20 -13 -25 -10 -5 4 -9 2 -9 -4 0 -10 -38 -27 -52 -23 -5 1 -8 -5
-8 -14 0 -12 -6 -15 -21 -11 -12 3 -19 3 -16 0 6 -6 -83 -92 -95 -93 -5 0 -8
-7 -8 -15 0 -7 -6 -18 -12 -22 -16 -10 -51 -78 -51 -98 0 -8 -3 -15 -6 -15 -3
0 -7 -16 -8 -35 -2 -19 -4 -38 -5 -42 -4 -18 16 -99 29 -120 8 -12 15 -26 15
-30 0 -4 14 -27 30 -50 57 -83 195 -177 350 -236 35 -14 72 -28 83 -32 11 -5
24 -7 29 -6 4 1 14 -3 21 -9 7 -6 17 -10 21 -9 5 1 16 0 24 -3 39 -15 139 -38
163 -38 15 0 27 -4 27 -8 0 -4 15 -9 33 -10 37 -2 58 -5 72 -13 6 -3 27 -5 47
-5 21 1 38 -3 38 -7 0 -5 5 -5 11 -1 6 3 15 1 19 -7 7 -10 11 -10 24 0 9 8 16
9 16 4 0 -5 6 -10 13 -10 6 -1 33 -2 60 -4 26 -1 47 -5 47 -8 0 -4 9 -7 20 -7
11 0 20 4 20 9 0 4 6 5 13 0 16 -10 29 -12 105 -14 34 -1 62 -5 62 -8 0 -3 15
-6 33 -6 38 0 19 33 195 -345 l49 -105 -1151 1 c-633 1 -1154 2 -1157 3 -3 0
-13 20 -24 44 -36 84 -138 204 -230 272 -22 17 -42 32 -45 35 -3 3 -16 11 -29
18 -99 56 -100 57 -169 91 -24 11 -50 21 -58 21 -8 0 -14 5 -14 12 0 6 -3 9
-6 5 -4 -3 -19 0 -35 9 -16 8 -29 12 -29 9 0 -3 -13 1 -30 10 -16 8 -38 15
-50 15 -11 0 -20 4 -20 8 0 5 -10 8 -22 7 -13 -1 -28 2 -34 6 -6 5 -30 11 -54
14 -24 3 -47 8 -52 11 -6 4 -26 8 -46 11 -49 6 -77 11 -77 13 0 1 -13 3 -30 5
-16 1 -47 4 -67 6 -21 2 -38 6 -38 9 0 3 -9 6 -20 6 -11 0 -20 -4 -20 -8 0 -4
-10 -4 -22 0 -13 5 -49 8 -80 8 -32 -1 -58 2 -58 6 0 3 -8 4 -17 2 -10 -2 -86
-5 -169 -7 l-152 -4 -17 41 c-10 23 -33 73 -51 111 -17 39 -47 102 -65 140
-17 39 -54 116 -81 173 -26 57 -48 105 -48 107 0 1 -27 60 -60 130 -34 70 -59
132 -57 138 3 10 6 12 67 23 19 3 37 9 40 13 3 5 16 7 28 6 13 -1 29 3 35 9 7
6 18 11 25 12 6 1 21 2 33 3 11 0 18 4 16 9 -3 4 7 8 23 9 15 1 43 11 63 22
19 11 38 17 42 13 3 -3 10 -1 14 6 4 7 17 14 29 15 12 0 24 7 26 14 3 7 14 13
25 13 11 0 26 6 33 13 7 6 27 19 43 27 17 8 32 17 35 20 3 3 25 18 50 34 71
47 191 176 229 247 19 35 37 66 42 69 15 11 2524 6 2534 -5z m951 -49 c16 -34
32 -63 35 -66 4 -3 10 -16 14 -29 4 -13 28 -67 52 -120 53 -112 96 -206 128
-276 12 -27 36 -79 53 -115 39 -84 137 -297 182 -395 13 -27 40 -86 60 -130
43 -91 80 -173 120 -260 15 -33 47 -100 70 -150 49 -104 210 -455 210 -458 0
-2 -120 -2 -267 -2 -265 0 -271 1 -276 32 0 5 -7 14 -14 21 -7 8 -11 17 -8 22
3 5 1 11 -5 15 -16 10 -41 76 -33 88 3 5 2 7 -4 4 -9 -6 -39 54 -34 68 1 3 -5
13 -14 21 -8 9 -15 24 -15 35 0 10 -4 19 -9 19 -5 0 -12 10 -16 23 -4 12 -8
24 -9 27 -1 3 -26 54 -54 115 -29 60 -55 120 -58 132 -4 13 -11 23 -17 23 -6
0 -8 3 -4 6 3 3 -5 27 -18 52 -48 97 -89 187 -87 195 1 4 -3 7 -10 7 -6 0 -9
3 -6 6 4 3 -14 46 -38 95 -24 49 -44 91 -44 93 0 2 -20 46 -44 98 -24 51 -53
116 -66 143 -12 28 -35 76 -51 109 -16 32 -26 63 -23 67 3 5 1 9 -3 9 -11 0
-53 84 -53 105 0 8 -4 15 -10 15 -5 0 -10 5 -10 11 0 5 -14 40 -32 76 -17 36
-31 72 -31 79 0 8 -4 14 -7 14 -8 0 -32 53 -32 67 0 4 -7 16 -15 26 -9 9 -12
17 -7 17 5 0 4 4 -2 8 -5 4 -19 29 -30 57 -10 27 -20 52 -21 55 -2 3 116 5
261 6 l264 1 28 -61z m4234 -426 c18 -41 48 -106 66 -145 l33 -70 -43 -40
c-137 -128 -295 -259 -426 -353 l-75 -54 -6 31 c-9 46 -2 182 10 194 6 6 11
19 11 28 0 10 5 30 12 46 6 15 12 30 13 33 20 51 40 90 47 90 4 0 8 6 8 14 0
8 6 21 13 28 6 7 26 33 42 58 17 24 77 91 134 148 118 118 104 119 161 -8z
m-8969 -202 c1 -7 1 -16 0 -20 0 -5 4 -8 9 -8 6 0 10 -4 10 -10 0 -5 14 -40
32 -77 17 -38 32 -70 33 -73 2 -7 42 -93 104 -223 28 -59 51 -114 51 -122 0
-7 5 -15 11 -17 5 -2 11 -10 13 -18 1 -8 22 -55 45 -105 24 -49 44 -96 44
-102 0 -7 4 -13 7 -13 4 0 13 -15 20 -32 7 -18 28 -66 47 -106 18 -41 35 -79
36 -85 1 -6 8 -18 15 -26 7 -7 10 -21 7 -29 -3 -9 -3 -13 1 -10 8 9 45 -62 38
-73 -3 -5 -1 -9 5 -9 5 0 13 -9 16 -21 4 -11 16 -42 28 -67 12 -26 20 -50 19
-54 -1 -5 2 -8 7 -8 9 0 27 -40 22 -49 -2 -2 2 -7 7 -10 6 -3 12 -15 14 -26 1
-11 9 -26 16 -34 7 -7 10 -21 7 -29 -3 -9 -3 -13 1 -10 6 7 65 -105 63 -120
-1 -4 0 -9 1 -12 6 -14 4 -110 -2 -110 -5 0 -8 7 -8 15 0 8 -4 23 -9 33 -6 9
-25 51 -45 92 -84 182 -110 238 -133 290 -14 30 -43 93 -65 140 -22 47 -48
103 -58 125 -10 22 -34 74 -54 116 -19 42 -49 107 -66 145 -17 38 -35 76 -40
86 -5 9 -40 86 -79 171 -38 84 -87 192 -109 238 -77 164 -82 178 -82 223 0 26
5 46 10 46 6 0 11 -6 11 -12z m5533 -90 c3 2 12 -1 21 -8 12 -10 15 -10 15 1
0 9 3 10 8 3 4 -6 30 -14 57 -17 59 -8 97 -15 145 -27 19 -5 46 -11 60 -14 14
-2 50 -13 80 -22 30 -10 61 -17 68 -15 6 1 12 -3 12 -9 0 -5 3 -9 8 -8 16 6
175 -67 193 -88 6 -8 1 -17 -16 -28 -14 -9 -25 -14 -25 -11 0 4 -7 -1 -16 -9
-8 -9 -22 -16 -30 -16 -8 0 -14 -5 -14 -12 0 -6 -3 -9 -6 -6 -3 4 -30 -5 -60
-18 -31 -13 -52 -19 -48 -13 3 6 -5 3 -20 -6 -14 -10 -26 -15 -26 -12 0 3 -23
-3 -52 -14 -28 -10 -54 -17 -56 -14 -2 2 -15 -1 -29 -6 -25 -9 -85 -21 -110
-22 -7 0 -13 -4 -13 -8 0 -4 -9 -5 -20 -2 -11 3 -20 10 -20 15 0 6 -11 33 -25
60 -14 27 -22 55 -18 60 3 6 2 8 -3 5 -6 -3 -16 9 -23 26 -8 18 -32 70 -53
117 -64 136 -62 129 -23 120 19 -4 36 -5 39 -2z m-1387 -15 c7 -6 13 -14 13
-17 0 -3 14 -34 30 -68 17 -34 30 -67 30 -75 0 -7 5 -13 10 -13 6 0 10 -5 10
-12 0 -6 14 -41 31 -77 42 -88 53 -114 51 -123 -1 -5 2 -8 7 -8 5 0 11 -9 14
-20 4 -17 0 -19 -42 -16 -27 2 -52 5 -57 8 -5 3 -21 4 -36 2 -16 -1 -28 0 -28
4 0 4 -15 7 -32 8 -18 0 -50 4 -70 7 -21 4 -55 10 -75 13 -21 3 -47 8 -58 11
-11 4 -27 8 -35 9 -8 2 -28 5 -45 9 -46 9 -69 13 -78 14 -5 1 -5 5 -2 11 3 6
-1 7 -9 4 -15 -6 -117 24 -191 56 -22 9 -48 20 -58 23 -10 4 -16 11 -13 16 3
5 -3 7 -14 4 -11 -3 -20 0 -20 6 0 6 -8 11 -17 11 -15 1 -14 4 7 21 32 27 115
69 135 69 8 0 15 5 15 11 0 6 7 9 15 6 8 -4 17 -2 20 4 4 5 10 7 15 4 5 -3 11
-1 15 5 4 6 11 8 16 5 5 -4 9 -2 9 4 0 6 7 8 15 5 8 -4 15 -2 15 3 0 5 6 10
13 11 14 1 41 7 91 20 20 6 36 8 36 5 0 -3 6 0 14 6 8 6 18 11 22 10 11 -3
120 15 127 20 1 2 15 4 31 6 15 2 31 6 33 9 8 8 26 3 40 -11z m4800 -663 c66
-105 333 -521 362 -565 l27 -40 -868 0 c-755 0 -898 3 -825 20 7 1 28 8 47 16
19 7 38 12 43 11 4 -1 7 2 7 7 0 5 17 15 38 22 20 6 73 29 116 50 44 21 84 35
90 32 6 -3 8 -3 4 2 -8 8 136 87 160 88 6 0 12 3 12 7 0 7 38 27 53 28 5 0 23
12 42 26 18 14 36 26 39 26 6 0 130 73 136 80 3 4 12 9 20 13 17 8 67 38 131
82 24 16 51 34 60 40 45 28 145 99 154 109 6 6 25 21 44 33 l35 21 16 -21 c9
-12 34 -51 57 -87z m-8943 -225 c1 -7 8 -20 15 -29 7 -9 11 -16 8 -16 -3 0 6
-21 19 -46 13 -25 21 -50 18 -56 -4 -7 -2 -8 4 -4 7 4 12 1 12 -8 0 -24 2 -30
17 -44 7 -7 13 -20 13 -28 0 -9 7 -23 16 -31 8 -9 13 -24 11 -35 -3 -10 -2
-16 2 -14 6 4 28 -37 83 -159 12 -27 21 -53 20 -57 -1 -3 5 -12 13 -18 8 -7
15 -18 15 -25 0 -8 11 -35 24 -62 13 -26 43 -88 66 -138 23 -49 48 -102 56
-116 7 -14 11 -29 7 -33 -3 -3 -1 -6 5 -6 7 0 12 -9 12 -20 0 -11 5 -20 12
-20 6 0 8 -3 5 -6 -3 -4 0 -16 8 -28 8 -11 15 -28 15 -38 0 -10 4 -18 9 -18 5
0 12 -13 16 -30 4 -16 11 -30 16 -30 5 0 8 -3 7 -7 -1 -5 11 -37 27 -73 17
-36 29 -68 27 -72 -1 -5 2 -8 6 -8 14 0 45 -77 37 -91 -5 -7 -4 -10 2 -6 13 8
26 -20 16 -36 -3 -7 -3 -9 2 -5 4 4 19 -16 33 -45 13 -28 31 -64 39 -79 8 -16
11 -28 8 -28 -3 0 -3 -5 1 -12 11 -17 12 -68 2 -68 -4 0 -8 4 -8 10 0 5 -22
56 -48 112 -27 57 -57 121 -66 143 -10 22 -36 78 -58 125 -22 47 -51 108 -63
135 -31 67 -86 186 -120 260 -16 33 -28 66 -28 73 0 6 -4 12 -7 12 -4 0 -17
21 -28 48 -11 26 -38 85 -60 132 -94 202 -162 350 -191 415 -18 39 -39 82 -47
98 -8 15 -12 32 -9 37 3 6 1 10 -4 10 -6 0 -10 18 -9 41 1 31 4 37 11 24 5 -9
10 -23 11 -30z m938 -110 c11 11 48 14 48 4 0 -6 6 -7 13 -2 19 12 37 12 37 1
0 -7 5 -7 13 1 10 8 17 7 25 -1 9 -9 12 -9 12 1 0 7 5 9 11 5 6 -4 46 -8 88
-10 42 -1 94 -5 116 -9 75 -11 100 -15 125 -20 14 -3 41 -8 60 -11 19 -3 46
-9 60 -13 14 -5 59 -19 100 -31 41 -12 81 -27 88 -32 6 -6 12 -8 12 -4 0 17
235 -118 244 -139 4 -10 -958 -15 -966 -5 -7 8 -58 120 -76 165 -9 22 -22 46
-29 53 -7 7 -13 25 -13 39 0 20 3 23 13 14 8 -6 16 -8 19 -6z m3895 -705 l-1
-66 -1866 0 -1865 1 -2 55 c-1 30 0 60 2 66 2 7 565 10 1868 10 l1866 0 -2
-66z m924 56 c0 -6 2 -356 2 -777 l2 -767 -35 0 c-19 -1 -50 -3 -68 -5 -18 -2
-35 0 -37 4 -3 3 -17 4 -32 2 -57 -8 -78 -8 -90 1 -8 5 -13 4 -13 -3 0 -7 -5
-9 -12 -4 -18 11 -52 10 -61 -2 -6 -7 -10 -7 -13 0 -4 10 -21 10 -102 2 -18
-2 -35 0 -37 3 -5 9 -37 6 -53 -4 -8 -5 -12 0 -13 16 -1 28 -1 1519 0 1534 1
15 561 15 562 0z m3724 -57 l1 -65 -1682 0 -1682 0 0 60 c0 34 2 64 4 67 1 3
758 5 1680 5 l1677 -1 2 -66z m-4646 -480 c1 -47 -1 -50 -20 -44 -16 5 -19 4
-14 -5 6 -9 4 -11 -5 -5 -17 11 -51 13 -75 4 -11 -3 -29 -3 -40 1 -11 4 -28 3
-37 -2 -10 -5 -18 -5 -18 -1 0 4 -18 8 -40 8 -22 0 -40 -3 -40 -7 0 -4 -15 -2
-32 3 -41 11 -41 11 -32 -2 4 -8 1 -8 -12 -2 -11 5 -30 8 -44 6 -32 -4 -52 -4
-122 -1 -32 2 -58 -1 -58 -6 0 -4 -6 -4 -13 3 -10 8 -17 7 -25 -1 -9 -9 -12
-9 -12 0 0 9 -5 10 -19 3 -10 -6 -21 -8 -24 -4 -9 9 -49 10 -72 2 -11 -3 -29
-3 -40 1 -11 4 -28 3 -37 -2 -10 -5 -18 -5 -18 -1 0 4 -18 8 -40 8 -22 0 -40
-3 -40 -7 0 -4 -15 -2 -32 3 -41 11 -41 11 -32 -2 4 -8 1 -8 -12 -2 -19 9 -72
9 -81 -1 -3 -3 -15 -1 -28 4 -14 5 -26 5 -34 -3 -7 -7 -11 -7 -11 -1 0 11 -52
10 -69 -1 -6 -3 -11 -2 -11 2 0 10 -53 9 -69 -2 -6 -3 -11 -2 -11 2 0 10 -53
9 -69 -2 -6 -3 -11 -2 -11 2 0 5 -28 7 -62 5 -35 -2 -73 -3 -85 -3 -13 1 -35
1 -50 2 -16 0 -37 0 -48 -1 -11 -1 -35 0 -52 3 -18 2 -33 1 -33 -4 0 -4 -15
-3 -32 2 -41 11 -41 11 -32 -2 4 -8 1 -8 -12 -2 -11 5 -28 8 -39 7 -41 -6 -61
-6 -92 -1 -18 2 -33 1 -33 -4 0 -4 -15 -3 -32 2 -41 11 -41 11 -32 -2 4 -8 1
-8 -12 -2 -23 10 -45 10 -61 0 -7 -5 -13 -4 -13 0 0 10 -53 9 -69 -2 -6 -3
-11 -2 -11 2 0 10 -53 9 -69 -2 -6 -3 -11 -2 -11 2 0 10 -53 9 -69 -2 -6 -3
-11 -2 -11 2 0 5 -28 7 -62 5 -60 -3 -74 -4 -135 -1 -16 0 -43 -1 -61 -4 -18
-2 -35 -1 -37 3 -5 8 -54 4 -83 -5 -7 -3 -11 -1 -8 4 3 5 -5 8 -19 7 -14 0
-25 -5 -25 -10 0 -6 -5 -5 -12 2 -7 7 -17 8 -30 1 -12 -7 -18 -6 -18 1 0 7 -6
8 -19 0 -12 -6 -22 -6 -25 -1 -6 9 -53 6 -84 -4 -7 -3 -11 -1 -8 4 3 5 -5 8
-19 7 -14 0 -25 -5 -25 -9 0 -5 -5 -5 -11 -1 -18 11 -79 12 -79 1 0 -5 -6 -4
-14 2 -10 8 -16 9 -21 1 -3 -6 -10 -8 -15 -5 -16 10 -110 12 -110 2 0 -5 -6
-4 -14 2 -9 8 -16 8 -20 2 -4 -6 -16 -7 -29 -3 -23 8 -91 7 -114 -3 -8 -2 -12
-1 -9 4 3 5 -5 8 -19 7 -14 0 -25 -5 -25 -10 0 -6 -5 -5 -12 2 -7 7 -17 8 -30
1 -12 -7 -18 -6 -18 1 0 7 -6 8 -19 1 -10 -6 -22 -7 -26 -3 -9 10 -79 9 -86
-1 -3 -4 -12 -5 -20 -2 -15 6 -25 77 -14 95 4 7 670 10 1869 10 l1863 0 2 -51z
m4645 1 c0 -36 -4 -45 -17 -44 -9 1 -14 -2 -11 -7 3 -5 0 -9 -5 -9 -6 0 -11 4
-11 8 0 8 -69 7 -77 -2 -3 -3 -15 -1 -27 4 -13 4 -29 4 -39 -1 -10 -6 -17 -6
-17 -1 0 10 -54 7 -71 -3 -5 -4 -9 -3 -9 2 0 4 -28 7 -62 5 -35 -2 -73 -3 -85
-3 -13 1 -35 1 -50 2 -16 0 -37 0 -48 -1 -11 -1 -35 0 -52 3 -18 2 -33 0 -33
-5 0 -5 -4 -7 -9 -3 -18 10 -91 13 -91 2 0 -6 -5 -5 -13 2 -10 8 -17 7 -25 -1
-7 -7 -12 -8 -12 -3 0 6 -18 10 -40 11 -22 0 -40 -4 -40 -9 0 -5 -7 -4 -15 3
-12 10 -15 10 -15 -1 0 -10 -2 -11 -8 -2 -5 8 -13 9 -22 3 -8 -5 -21 -5 -29
-2 -20 9 -42 9 -58 -1 -7 -5 -13 -4 -13 1 0 10 -54 7 -71 -3 -5 -4 -9 -2 -9 2
0 10 -53 9 -69 -2 -6 -3 -11 -2 -11 3 0 10 -54 7 -71 -3 -5 -4 -9 -3 -9 2 0 4
-28 7 -62 5 -35 -2 -73 -3 -85 -3 -13 1 -35 1 -50 2 -16 0 -37 0 -48 -1 -11
-1 -35 0 -52 3 -18 2 -33 0 -33 -5 0 -5 -4 -7 -9 -3 -19 11 -91 12 -91 2 0 -7
-4 -7 -12 1 -8 8 -15 9 -25 1 -7 -7 -13 -8 -13 -3 0 5 -18 9 -40 10 -22 0 -37
-4 -33 -9 3 -5 -4 -4 -16 2 -16 9 -21 9 -21 -1 0 -10 -2 -10 -8 -1 -5 8 -13 9
-22 3 -8 -5 -21 -5 -29 -2 -20 9 -42 9 -58 -1 -7 -5 -13 -4 -13 0 0 10 -53 9
-69 -2 -6 -3 -11 -2 -11 2 0 10 -53 9 -69 -2 -6 -3 -11 -2 -11 2 0 10 -53 9
-69 -2 -6 -3 -11 -2 -11 2 0 5 -28 7 -62 5 -35 -2 -73 -3 -85 -3 -13 1 -35 1
-50 2 -16 0 -37 0 -48 -1 -11 -1 -35 0 -52 3 -18 2 -33 1 -33 -4 0 -4 -15 -3
-32 2 -41 11 -41 11 -32 -2 4 -8 1 -8 -12 -2 -11 5 -28 8 -39 7 -41 -6 -61 -6
-92 -1 -18 2 -33 1 -33 -4 0 -4 -15 -3 -32 2 -41 11 -41 11 -32 -2 4 -8 1 -8
-12 -2 -23 10 -45 10 -61 0 -7 -5 -13 -4 -13 0 0 10 -53 9 -69 -2 -6 -3 -11
-2 -11 2 0 10 -53 9 -69 -2 -6 -3 -11 -2 -11 2 0 10 -53 9 -69 -2 -6 -3 -11
-3 -11 2 0 12 -144 10 -152 -2 -5 -6 -8 -6 -8 2 0 6 -9 10 -19 8 -17 -3 -20 2
-19 38 0 23 2 45 5 50 2 4 759 6 1681 5 l1677 -3 -1 -45z m-8278 -413 c26 1
52 4 59 7 7 2 16 2 19 -1 8 -8 106 -9 106 -1 0 3 12 3 27 -1 16 -4 44 -5 63
-1 19 3 49 3 65 0 17 -3 45 -3 63 1 17 4 32 4 32 0 0 -3 59 -6 130 -6 72 0
130 4 130 8 0 5 5 5 11 1 16 -9 149 -10 149 -1 0 5 5 5 11 1 16 -9 149 -10
149 -1 0 5 5 5 10 2 6 -4 56 -6 110 -5 55 0 107 1 115 0 35 -1 68 -1 121 0 31
1 58 -1 61 -3 2 -3 17 -1 33 3 16 4 31 5 35 2 5 -5 76 -7 100 -2 6 1 15 1 20
0 6 -1 30 -1 55 -1 25 1 51 1 58 1 35 -1 62 -1 107 -1 73 0 113 1 128 1 6 1
36 0 65 -2 28 -2 52 0 52 3 0 4 15 3 33 0 17 -4 46 -5 62 -1 17 3 44 3 60 0
17 -3 45 -3 63 1 17 4 32 4 32 0 0 -3 52 -6 115 -6 63 0 115 4 115 8 0 5 5 5
10 2 6 -4 31 -6 55 -5 56 1 54 1 147 -1 42 -1 81 2 87 5 6 4 11 4 11 -1 0 -4
42 -7 92 -5 111 3 94 3 196 0 45 -2 82 0 82 4 0 4 7 5 16 1 8 -3 95 -6 192 -7
l177 -1 2 -35 c3 -71 30 -66 -355 -66 -232 0 -349 3 -354 10 -5 8 -8 7 -8 -1
0 -13 -157 -13 -179 1 -9 6 -12 5 -8 -1 8 -13 -212 -12 -232 1 -9 6 -12 5 -8
-1 4 -6 -4 -10 -18 -10 -14 0 -25 5 -25 11 0 8 -2 8 -8 0 -8 -14 -160 -13
-181 0 -9 6 -12 5 -8 -1 8 -13 -212 -12 -232 1 -9 6 -12 5 -8 -1 4 -6 -4 -10
-18 -10 -14 0 -25 5 -25 11 0 8 -2 8 -8 -1 -9 -14 -144 -13 -154 2 -5 6 -8 6
-8 -2 0 -13 -157 -13 -179 1 -9 6 -12 5 -8 -1 8 -13 -212 -12 -232 1 -9 6 -12
5 -7 -2 8 -14 -36 -12 -46 3 -5 7 -8 7 -8 -1 0 -13 -898 -13 -919 0 -9 6 -12
5 -8 -1 4 -6 -80 -10 -242 -9 l-249 1 1 52 c0 48 2 52 26 55 14 2 27 1 28 -2
2 -3 24 -4 49 -3z m5139 -1 c30 6 126 6 132 1 2 -3 17 -1 33 3 16 4 31 5 35 2
5 -5 76 -7 100 -2 6 1 15 1 20 0 6 -1 30 -1 55 -1 25 1 51 1 58 1 35 -1 62 -1
107 -1 73 0 113 1 128 1 6 1 36 0 65 -2 28 -2 52 0 52 3 0 4 15 4 33 0 17 -4
46 -4 62 -1 17 3 44 3 60 0 17 -4 45 -3 63 1 17 4 32 4 32 0 0 -5 630 -6 805
-1 22 0 60 0 85 0 25 -1 50 -1 55 0 6 1 15 1 20 0 24 -5 95 -3 101 2 3 4 12 4
19 2 24 -10 105 -9 106 1 0 7 2 7 5 0 2 -5 28 -9 56 -7 29 2 59 3 66 3 14 -1
96 -1 115 0 6 0 33 -1 59 -2 26 -2 50 0 54 3 3 4 12 4 19 2 24 -10 105 -9 106
1 0 7 2 7 5 0 2 -5 28 -9 56 -7 29 2 59 3 66 3 10 -1 62 -1 120 -1 9 0 55 0
102 -1 l85 -1 0 -49 c0 -27 -2 -50 -5 -50 -3 -1 -92 -2 -197 -3 -128 -1 -193
2 -193 9 0 7 -3 6 -8 -1 -10 -14 -472 -14 -472 1 0 6 -3 6 -8 -1 -10 -14
-1104 -14 -1114 1 -5 7 -8 7 -8 -1 0 -14 -462 -14 -472 1 -5 7 -8 6 -8 -2 0
-14 -150 -13 -150 2 0 6 -3 6 -8 -1 -10 -14 -464 -14 -474 1 -5 7 -8 6 -8 -1
0 -8 -34 -11 -112 -9 -62 2 -116 3 -119 4 -4 1 -6 22 -5 49 l1 47 75 3 c41 1
80 4 85 6 6 2 17 0 25 -4 8 -4 24 -6 35 -4z m-1534 -466 c24 0 25 -2 27 -64
l1 -64 -32 -1 c-18 0 -45 -2 -62 -3 -16 -2 -36 1 -42 6 -8 5 -13 4 -13 -3 0
-7 -5 -9 -12 -4 -18 11 -52 10 -61 -2 -6 -7 -10 -6 -13 1 -5 11 -67 10 -86 -2
-7 -4 -8 -3 -4 4 5 9 1 9 -17 3 -16 -6 -28 -6 -36 2 -8 8 -11 8 -11 -2 0 -7
-5 -9 -12 -4 -18 11 -52 10 -61 -2 -6 -7 -10 -7 -13 0 -4 9 -24 10 -104 2 -14
-1 -31 2 -37 7 -8 5 -13 4 -13 -3 0 -7 -5 -9 -12 -4 -18 11 -52 10 -61 -2 -6
-7 -10 -6 -13 1 -5 11 -67 10 -86 -2 -7 -4 -8 -3 -4 4 5 9 0 9 -18 2 -14 -5
-28 -6 -30 -1 -6 9 -37 8 -54 -3 -6 -4 -12 -3 -12 3 0 7 -8 7 -25 1 -13 -5
-27 -6 -29 -1 -3 5 -18 7 -33 4 -61 -8 -84 -9 -88 -2 -5 7 -61 3 -76 -6 -5 -4
-9 -2 -9 3 0 10 -54 7 -71 -3 -5 -4 -9 -2 -9 3 0 10 -54 7 -71 -3 -5 -4 -9 -2
-9 3 0 10 -54 7 -71 -3 -5 -4 -9 -2 -9 3 0 10 -54 7 -71 -3 -5 -4 -9 -2 -9 3
0 10 -54 7 -71 -3 -5 -4 -9 -2 -9 3 0 10 -54 7 -71 -3 -5 -4 -9 -2 -9 3 0 10
-54 7 -71 -3 -5 -4 -9 -2 -9 3 0 10 -54 7 -71 -3 -5 -4 -9 -2 -9 3 0 10 -54 7
-71 -3 -5 -4 -9 -2 -9 3 0 10 -54 7 -71 -3 -5 -4 -9 -2 -9 3 0 10 -54 7 -71
-3 -5 -4 -9 -2 -9 3 0 10 -54 7 -71 -3 -5 -4 -9 -2 -9 3 0 10 -54 7 -71 -3 -5
-4 -9 -2 -9 3 0 10 -54 7 -71 -3 -5 -4 -9 -2 -9 3 0 10 -54 7 -71 -3 -5 -4 -9
-2 -9 2 0 12 -73 10 -83 -2 -6 -7 -10 -6 -13 1 -5 11 -67 10 -86 -2 -7 -4 -8
-3 -4 4 5 9 0 9 -18 2 -14 -5 -28 -6 -30 -1 -6 9 -37 8 -54 -3 -6 -4 -12 -3
-12 3 0 6 -11 6 -30 1 -17 -5 -30 -5 -30 0 0 9 -46 4 -63 -7 -6 -3 -7 -1 -3 5
5 9 0 9 -18 2 -14 -5 -28 -6 -30 -1 -6 9 -37 8 -54 -3 -6 -4 -12 -3 -12 3 0 6
-11 6 -30 1 -17 -5 -30 -5 -30 0 0 9 -46 4 -63 -7 -6 -3 -7 -1 -3 5 5 9 0 9
-18 2 -14 -5 -28 -6 -30 -1 -6 9 -37 8 -54 -3 -6 -4 -12 -3 -12 3 0 6 -11 6
-30 1 -17 -5 -30 -5 -30 0 0 9 -46 4 -63 -7 -6 -3 -7 -1 -3 5 5 9 0 9 -18 2
-14 -5 -28 -6 -30 -1 -6 9 -37 8 -54 -3 -6 -4 -12 -3 -12 3 0 6 -11 6 -30 1
-17 -5 -30 -5 -30 0 0 9 -46 4 -63 -7 -6 -3 -7 -1 -3 5 5 9 0 9 -18 2 -14 -5
-28 -6 -30 -1 -6 9 -37 8 -54 -3 -6 -4 -12 -3 -12 3 0 6 -11 6 -30 1 -19 -5
-30 -5 -30 1 0 6 -9 8 -19 4 -18 -5 -19 0 -20 59 l0 65 42 3 c30 2 3438 1
3668 -2z m4589 0 l86 0 -1 -60 c0 -57 -2 -61 -25 -66 -14 -3 -31 -7 -37 -10
-7 -2 -13 2 -14 9 0 9 -2 9 -6 -1 -2 -6 -10 -9 -16 -5 -17 11 -41 10 -50 -2
-6 -7 -10 -7 -13 0 -4 10 -21 10 -102 2 -18 -2 -35 0 -37 3 -5 9 -37 6 -53 -4
-6 -4 -12 -3 -12 3 0 6 -11 6 -30 1 -16 -5 -30 -5 -30 -1 0 5 -12 6 -27 4 -60
-8 -84 -9 -88 -3 -5 9 -37 6 -53 -4 -6 -4 -12 -3 -12 3 0 6 -11 6 -30 1 -16
-5 -30 -5 -30 -1 0 5 -12 6 -27 4 -60 -8 -84 -9 -88 -3 -5 9 -37 6 -53 -4 -6
-4 -12 -3 -12 3 0 6 -11 6 -30 1 -16 -5 -30 -5 -30 -1 0 5 -12 6 -27 4 -60 -8
-84 -9 -88 -3 -5 9 -37 6 -53 -4 -6 -4 -12 -3 -12 3 0 6 -11 6 -30 1 -16 -5
-30 -5 -30 -1 0 5 -12 6 -27 4 -60 -8 -84 -9 -88 -3 -5 9 -37 6 -53 -4 -6 -4
-12 -3 -12 3 0 6 -11 6 -30 1 -16 -5 -30 -5 -30 -1 0 5 -12 6 -27 4 -60 -8
-84 -9 -88 -3 -5 9 -37 6 -53 -4 -6 -4 -12 -3 -12 3 0 6 -11 6 -30 1 -16 -5
-30 -5 -30 -1 0 5 -12 6 -27 4 -60 -8 -84 -9 -88 -3 -5 9 -37 6 -53 -4 -6 -4
-12 -3 -12 3 0 6 -11 6 -30 1 -16 -5 -30 -5 -30 -1 0 5 -12 6 -27 4 -54 -7
-93 -8 -93 -2 0 7 -57 2 -71 -6 -5 -4 -9 -2 -9 3 0 10 -54 7 -71 -3 -5 -4 -9
-2 -9 3 0 10 -54 7 -71 -3 -5 -4 -9 -2 -9 3 0 10 -54 7 -71 -3 -5 -4 -9 -2 -9
3 0 10 -54 7 -71 -3 -5 -4 -9 -2 -9 3 0 10 -54 7 -71 -3 -5 -4 -9 -2 -9 3 0
10 -54 7 -71 -3 -5 -4 -9 -2 -9 3 0 10 -54 7 -71 -3 -5 -4 -9 -2 -9 3 0 10
-54 7 -71 -3 -5 -4 -9 -2 -9 3 0 10 -54 7 -71 -3 -5 -4 -9 -2 -9 3 0 10 -54 7
-71 -3 -5 -4 -9 -2 -9 3 0 10 -54 7 -71 -3 -5 -4 -9 -2 -9 3 0 10 -54 7 -71
-3 -5 -4 -9 -2 -9 3 0 10 -54 7 -71 -3 -5 -4 -9 -2 -9 3 0 10 -54 7 -71 -3 -5
-4 -9 -2 -9 3 0 10 -30 9 -47 -1 -6 -4 -14 -3 -17 2 -6 8 -60 6 -76 -4 -5 -3
-11 -1 -15 5 -4 6 -10 8 -15 5 -4 -3 -8 24 -8 60 l0 64 112 3 c84 2 1802 1
3166 -2z"/>
</g>
</svg>
